<?xml version="1.0" encoding="utf-8"?>
<!-- Generator: Adobe Illustrator 21.0.0, SVG Export Plug-In . SVG Version: 6.00 Build 0)  -->
<svg version="1.1" id="Layer_1" xmlns="http://www.w3.org/2000/svg" xmlns:xlink="http://www.w3.org/1999/xlink" x="0px" y="0px"
	 viewBox="0 0 214.5 279" style="enable-background:new 0 0 214.5 279;" xml:space="preserve">
<style type="text/css">
	.st0{fill:#FFECDE;}
	.st1{fill:#452600;}
	.st2{fill:#DF4A00;}
	.st3{fill:#EFD6C5;}
</style>
<g>
	<g>
		<path class="st0" d="M183.8,122.1c1.9-8.8,2.4-20.5,0.8-35.9c-5.3-49.5-27.4-90.8-45-85.8c-15.5,4.4-12.5,42.3-7.2,90.9
			c-8.1-2-16.5-3.1-25.1-3.1s-17.1,1.1-25.1,3.1c5.2-48.6,8.3-86.5-7.2-90.9c-17.6-5-39.6,36.3-45,85.8c-1.7,15.4-1.1,27.1,0.8,35.9
			C11.7,142.4,0,170.3,0,201C0,263.4,48,279,107.2,279s107.2-15.6,107.2-77.9C214.5,170.3,202.8,142.4,183.8,122.1z"/>
	</g>
	<g>
		<g>
			<path class="st1" d="M61.3,185.3c0,3.5-0.7-0.7-6.3-0.7c-3.5,0-5.6,4.2-7,0.7c-1.3-3.2,2.1-7,7-6.3
				C58.4,179.5,61.3,181.9,61.3,185.3z"/>
		</g>
		<g>
			<path class="st1" d="M153.2,185.3c0,3.5,0.7-0.7,6.3-0.7c3.5,0,5.6,4.2,7,0.7c1.3-3.2-2.1-7-7-6.3
				C156.1,179.5,153.2,181.9,153.2,185.3z"/>
		</g>
	</g>
	<g>
		<path class="st2" d="M101,202.1c0-3.5,2.8-2.1,6.3-2.1s6.3-1.4,6.3,2.1s-4.9,6.3-6.3,6.3S101,205.6,101,202.1z"/>
	</g>
	<g>
		<g>
			<g>
				<path class="st3" d="M65.5,93.2c2.6-24.4,4.4-43.5-0.8-45.5c-5.8-2.2-13.9,18.5-16.6,42.9c-0.8,7-0.8,12.4-0.5,16.6
					c5.4-3.8,11.2-7.1,17.3-9.9C65.2,96,65.3,94.6,65.5,93.2z"/>
			</g>
			<g>
				<path class="st3" d="M166.4,90.6c-2.6-24.4-10.7-45.1-16.6-42.9c-5.2,1.9-3.4,21.1-0.8,45.5c0.2,1.4,0.3,2.8,0.5,4.1
					c6.1,2.7,11.9,6.1,17.3,9.9C167.2,103,167.1,97.6,166.4,90.6z"/>
			</g>
		</g>
		<g>
			<g>
				<g>
					<circle class="st3" cx="19.6" cy="203.1" r="1.7"/>
				</g>
				<g>
					<circle class="st3" cx="30.7" cy="194.8" r="1.7"/>
				</g>
				<g>
					<circle class="st3" cx="34.9" cy="208.7" r="1.7"/>
				</g>
			</g>
			<g>
				<g>
					<circle class="st3" cx="194.9" cy="203.1" r="1.7"/>
				</g>
				<g>
					<circle class="st3" cx="183.8" cy="194.8" r="1.7"/>
				</g>
				<g>
					<circle class="st3" cx="179.6" cy="208.7" r="1.7"/>
				</g>
			</g>
		</g>
	</g>
</g>
</svg>
